<svg xmlns="http://www.w3.org/2000/svg" xmlns:xlink="http://www.w3.org/1999/xlink" width="37.729" height="48.271" viewBox="0 0 37.729 48.271">
  <defs>
    <linearGradient id="linear-gradient" x1="-0.008" y1="1.05" x2="0.994" y2="0.015" gradientUnits="objectBoundingBox">
      <stop offset="0" stop-color="#003f8a"/>
      <stop offset="0.518" stop-color="#00d7df"/>
      <stop offset="1" stop-color="#006df0"/>
    </linearGradient>
  </defs>
  <g id="download" transform="translate(-55.907 0)">
    <path id="Path_49014" data-name="Path 49014" d="M93.429,11.143,89.818,7.532V2.146A2.148,2.148,0,0,0,87.672,0H58.026a2.121,2.121,0,0,0-2.119,2.119V37.665a2.121,2.121,0,0,0,2.119,2.119h1.2v1.181a2.121,2.121,0,0,0,2.119,2.119h4.6a.707.707,0,1,0,0-1.414h-4.6a.705.705,0,0,1-.7-.7V12.535a.707.707,0,1,0-1.414,0V38.369h-1.2a.705.705,0,0,1-.7-.7V2.119a.705.705,0,0,1,.7-.7H87.672a.732.732,0,0,1,.732.731V6.118L85.792,3.507a.707.707,0,0,0-.5-.207H61.343a2.121,2.121,0,0,0-2.119,2.119V9.244a.707.707,0,1,0,1.414,0V5.418a.705.705,0,0,1,.7-.7H84.585v6.928a.707.707,0,0,0,.707.707h6.93V40.964a.705.705,0,0,1-.7.7H86.976a.707.707,0,1,0,0,1.414h4.541a2.121,2.121,0,0,0,2.119-2.119V11.643a.707.707,0,0,0-.207-.5ZM86,10.935V5.714l5.222,5.222Z" fill="url(#linear-gradient)"/>
    <path id="Path_49015" data-name="Path 49015" d="M194.191,175.456H177.275a.707.707,0,0,0,0,1.414h16.916a.707.707,0,0,0,0-1.414Z" transform="translate(-109.285 -158.914)" fill="url(#linear-gradient)"/>
    <path id="Path_49016" data-name="Path 49016" d="M194.191,219.688H177.275a.707.707,0,0,0,0,1.414h16.916a.707.707,0,0,0,0-1.414Z" transform="translate(-109.285 -198.976)" fill="url(#linear-gradient)"/>
    <path id="Path_49017" data-name="Path 49017" d="M324.592,264.8H321.25a.707.707,0,0,0,0,1.414h3.342a.707.707,0,1,0,0-1.414Z" transform="translate(-239.687 -239.837)" fill="url(#linear-gradient)"/>
    <path id="Path_49018" data-name="Path 49018" d="M187.521,266.216a.707.707,0,0,0,0-1.414H177.275a.707.707,0,0,0,0,1.414Z" transform="translate(-109.285 -239.837)" fill="url(#linear-gradient)"/>
    <path id="Path_49019" data-name="Path 49019" d="M239.873,370.657l-1.885,1.885v-6.836a.707.707,0,1,0-1.414,0v6.836l-1.885-1.885a.707.707,0,0,0-1,1l3.092,3.092a.707.707,0,0,0,1,0l3.092-3.092a.707.707,0,0,0-1-1Z" transform="translate(-160.834 -330.587)" fill="url(#linear-gradient)"/>
    <path id="Path_49020" data-name="Path 49020" d="M188.461,323.61a8.881,8.881,0,1,0,8.881,8.881A8.891,8.891,0,0,0,188.461,323.61Zm0,16.347a7.466,7.466,0,1,1,7.467-7.466A7.475,7.475,0,0,1,188.461,339.957Z" transform="translate(-112.013 -293.101)" fill="url(#linear-gradient)"/>
  </g>
</svg>
