<svg xmlns="http://www.w3.org/2000/svg" xmlns:xlink="http://www.w3.org/1999/xlink" width="55.474" height="43.843" viewBox="0 0 55.474 43.843">
  <defs>
    <linearGradient id="linear-gradient" x1="-0.037" y1="1.139" x2="0.99" y2="-0.161" gradientUnits="objectBoundingBox">
      <stop offset="0" stop-color="#003f8a"/>
      <stop offset="0.518" stop-color="#00d7df"/>
      <stop offset="1" stop-color="#006df0"/>
    </linearGradient>
    <linearGradient id="linear-gradient-2" x1="-2.775" y1="3.112" x2="2.532" y2="-0.868" xlink:href="#linear-gradient"/>
    <linearGradient id="linear-gradient-3" x1="-1.813" y1="2.471" x2="3.086" y2="-1.509" xlink:href="#linear-gradient"/>
  </defs>
  <g id="faq" transform="translate(-8 -56)">
    <path id="Path_49000" data-name="Path 49000" d="M62.579,64.053H40.211V56.895A.9.9,0,0,0,39.316,56H8.895A.9.9,0,0,0,8,56.895V83.737a.9.9,0,0,0,.895.895h2.684V90.9a.895.895,0,0,0,1.528.633l6.9-6.9H31.263V91.79a.9.9,0,0,0,.895.895H51.472l6.9,6.9a.895.895,0,0,0,1.528-.633V92.685h2.684a.9.9,0,0,0,.895-.895V64.947A.9.9,0,0,0,62.579,64.053ZM19.632,82.842A.9.9,0,0,0,19,83.1l-5.63,5.631v-5a.9.9,0,0,0-.895-.895H9.789V57.789H38.421V82.842ZM61.685,90.9H59a.9.9,0,0,0-.895.895v5l-5.63-5.631a.9.9,0,0,0-.633-.262H33.053V84.632h6.263a.9.9,0,0,0,.895-.895V65.842H61.685Z" fill="url(#linear-gradient)"/>
    <path id="Path_49001" data-name="Path 49001" d="M336.592,198.263a.9.9,0,0,0,1.143-.542l1.386-3.88h4.491l1.386,3.88a.895.895,0,1,0,1.685-.6l-4.474-12.526a.895.895,0,0,0-1.685,0L336.05,197.12a.9.9,0,0,0,.542,1.144Zm4.775-10.709,1.606,4.5H339.76Z" transform="translate(-291.313 -113.684)" fill="url(#linear-gradient-2)"/>
    <path id="Path_49002" data-name="Path 49002" d="M114.087,123.506a5.336,5.336,0,0,0,.65-2.559v-3.579a5.368,5.368,0,1,0-10.737,0v3.579a5.366,5.366,0,0,0,8.973,3.975l1.131,1.131a.895.895,0,1,0,1.265-1.265Zm-4.719,1.02a3.583,3.583,0,0,1-3.579-3.579v-3.579a3.579,3.579,0,0,1,7.158,0v3.579a3.562,3.562,0,0,1-.21,1.208l-.946-.946a.895.895,0,1,0-1.265,1.265l1.18,1.18A3.562,3.562,0,0,1,109.368,124.526Z" transform="translate(-85.263 -49.737)" fill="url(#linear-gradient-3)"/>
  </g>
</svg>
