<svg xmlns="http://www.w3.org/2000/svg" width="102" height="37.632" viewBox="0 0 102 37.632">
  <g id="Group_48975" data-name="Group 48975" transform="translate(-151.655 -195.241)">
    <path id="Path_1" data-name="Path 1" d="M279.1,222.734a2.95,2.95,0,1,1-2.946-2.95,2.947,2.947,0,0,1,2.946,2.95" transform="translate(-48.554 -9.804)" fill="#00afe4"/>
    <rect id="Rectangle_3" data-name="Rectangle 3" width="3.176" height="27.731" rx="0.81" transform="translate(172.37 195.241)" fill="#fff"/>
    <path id="Path_2" data-name="Path 2" d="M251.4,207.58a10.375,10.375,0,0,0-5.548-1.421,11.672,11.672,0,0,0-5.432,1.218,6.779,6.779,0,0,0-2.123,1.609v-1.758a.645.645,0,0,0-.644-.644h-2.22a.645.645,0,0,0-.645.644V226.7a.645.645,0,0,0,.645.644h2.22a.645.645,0,0,0,.644-.644v-10.53a7.113,7.113,0,0,1,2.139-5.564,6.3,6.3,0,0,1,4.439-1.637,6.984,6.984,0,0,1,3.983,1.13,3.032,3.032,0,0,1,1.614,2.609V226.7a.645.645,0,0,0,.644.644h2.331a.645.645,0,0,0,.645-.644V212.13a5.188,5.188,0,0,0-2.692-4.55" transform="translate(-33.21 -4.361)" fill="#fff"/>
    <path id="Path_3" data-name="Path 3" d="M304.879,215.73a3.654,3.654,0,0,1-2.223,3.518,8.63,8.63,0,0,1-3.8.765H293.3V210.1h5.552a7.019,7.019,0,0,1,4.476,1.426,3.873,3.873,0,0,1,1.546,3.283Zm-11.575-17.6h5.82c2.212.005,3.532.61,4.193,1.686a5.463,5.463,0,0,1,.581,2.828,4.691,4.691,0,0,1-2.259,3.756,9.38,9.38,0,0,1-4.359.8H293.3ZM307.142,210.5a5.928,5.928,0,0,0-3-2.111,6.9,6.9,0,0,0,2.093-1.711,7.269,7.269,0,0,0,1.55-3.942l0-.023v-.658a6,6,0,0,0-2.36-5.124,10.42,10.42,0,0,0-6.307-1.691h-8.769a.836.836,0,0,0-.837.837v26.066a.837.837,0,0,0,.837.837h7.828l1.491-.02a11.431,11.431,0,0,0,6.315-1.5,6.325,6.325,0,0,0,2.725-5.626v-.578a7.634,7.634,0,0,0-1.573-4.753" transform="translate(-55.073 0)" fill="#00afe4"/>
    <g id="Group_8" data-name="Group 8" transform="translate(222.809 224.955)">
      <g id="Group_7" data-name="Group 7">
        <g id="Group_1" data-name="Group 1" transform="translate(0 1.86)">
          <path id="Path_4" data-name="Path 4" d="M278.741,250.5v2.786a.363.363,0,0,1-.407.407H278.3a.364.364,0,0,1-.408-.407V250.5c0-1.106-.419-1.654-1.247-1.654-1.03,0-1.679.573-1.679,1.934v2.506a.363.363,0,0,1-.407.407h-.038a.363.363,0,0,1-.407-.407V250.5c0-1.106-.42-1.654-1.247-1.654-1.031,0-1.68.573-1.68,1.934v2.506a.363.363,0,0,1-.407.407h-.038a.363.363,0,0,1-.407-.407v-4.783a.363.363,0,0,1,.407-.407h.038a.363.363,0,0,1,.407.407v.267a2.124,2.124,0,0,1,1.68-.764,1.746,1.746,0,0,1,1.883,1.082,2.1,2.1,0,0,1,1.9-1.082C278.092,248.011,278.741,248.724,278.741,250.5Z" transform="translate(-270.217 -247.896)" fill="#00afe4"/>
          <path id="Path_5" data-name="Path 5" d="M278.258,253.737h-.038a.476.476,0,0,1-.523-.522v-2.786c0-1.035-.37-1.539-1.131-1.539-1.038,0-1.563.612-1.563,1.818v2.506a.476.476,0,0,1-.523.522h-.038a.476.476,0,0,1-.522-.522v-2.786c0-1.035-.37-1.539-1.131-1.539-1.038,0-1.564.612-1.564,1.818v2.506a.476.476,0,0,1-.522.522h-.038a.476.476,0,0,1-.522-.522v-4.783a.476.476,0,0,1,.522-.522h.038a.473.473,0,0,1,.522.5,2.247,2.247,0,0,1,1.564-.592,1.9,1.9,0,0,1,1.9.953,2.207,2.207,0,0,1,1.877-.953c1.532,0,2.215.8,2.215,2.609v2.786A.475.475,0,0,1,278.258,253.737Zm-1.693-5.078c.9,0,1.363.6,1.363,1.77v2.786c0,.2.087.292.292.292h.038c.2,0,.291-.087.291-.292v-2.786c0-1.689-.575-2.379-1.984-2.379a1.99,1.99,0,0,0-1.795,1.024l-.121.21-.087-.226c-.267-.7-.814-1.008-1.775-1.008a2.013,2.013,0,0,0-1.591.723l-.2.241v-.583c0-.2-.087-.292-.292-.292h-.038c-.2,0-.292.087-.292.292v4.783c0,.2.087.292.292.292h.038c.2,0,.292-.087.292-.292v-2.506c0-1.694.976-2.05,1.795-2.05.622,0,1.362.307,1.362,1.77v2.786c0,.2.087.292.292.292h.038c.2,0,.292-.087.292-.292v-2.506C274.771,249.014,275.747,248.659,276.565,248.659Z" transform="translate(-270.14 -247.819)" fill="#00afe4"/>
        </g>
        <g id="Group_2" data-name="Group 2" transform="translate(9.286 1.86)">
          <path id="Path_6" data-name="Path 6" d="M291.6,251.1c0,.141-.14.2-.407.2h-4.466A2.054,2.054,0,0,0,288.7,253a1.936,1.936,0,0,0,1.348-.547.659.659,0,0,1,.509-.229h.166c.33,0,.483.229.28.5a2.913,2.913,0,0,1-2.3,1.119,2.955,2.955,0,0,1-2.9-2.926,2.9,2.9,0,1,1,5.8,0Zm-4.873-.611h3.944a2.005,2.005,0,0,0-3.944,0Z" transform="translate(-285.68 -247.896)" fill="#00afe4"/>
          <path id="Path_7" data-name="Path 7" d="M288.619,253.877a3.069,3.069,0,0,1-3.016-3.041,3.016,3.016,0,1,1,6.032,0v.19c0,.146-.091.319-.522.319h-4.321a1.92,1.92,0,0,0,1.827,1.461,1.821,1.821,0,0,0,1.268-.515.769.769,0,0,1,.589-.261h.166a.473.473,0,0,1,.452.227.43.43,0,0,1-.08.454A3.011,3.011,0,0,1,288.619,253.877Zm0-5.827a2.788,2.788,0,0,0-2.785,2.786,2.835,2.835,0,0,0,2.785,2.81,2.78,2.78,0,0,0,2.212-1.075.215.215,0,0,0,.056-.211.267.267,0,0,0-.245-.1h-.166a.542.542,0,0,0-.428.2,2.053,2.053,0,0,1-1.43.581,2.158,2.158,0,0,1-2.085-1.785l-.027-.138h4.606c.088,0,.291-.008.291-.088v-.19A2.789,2.789,0,0,0,288.619,248.05Zm2.113,2.481h-4.227l.029-.139a2.121,2.121,0,0,1,4.17,0Zm-3.939-.231h3.651a1.887,1.887,0,0,0-3.651,0Z" transform="translate(-285.603 -247.819)" fill="#00afe4"/>
        </g>
        <g id="Group_3" data-name="Group 3" transform="translate(15.862)">
          <path id="Path_8" data-name="Path 8" d="M302.165,252.459a.363.363,0,0,1-.407-.407v-.483a2.722,2.722,0,0,1-2.112,1.03,2.955,2.955,0,0,1-2.9-2.926,2.916,2.916,0,0,1,2.9-2.9,2.739,2.739,0,0,1,2.112,1V245.32a.363.363,0,0,1,.407-.407h.038a.363.363,0,0,1,.407.407v6.732a.363.363,0,0,1-.407.407Zm-.458-2.786a2.108,2.108,0,0,0-2.087-2.061,2,2,0,0,0-1.984,2.061,2.042,2.042,0,0,0,1.984,2.086A2.147,2.147,0,0,0,301.707,249.673Z" transform="translate(-296.63 -244.798)" fill="#00afe4"/>
          <path id="Path_9" data-name="Path 9" d="M299.569,252.638a3.07,3.07,0,0,1-3.016-3.042,3.019,3.019,0,0,1,3.016-3.016,2.849,2.849,0,0,1,2,.825v-2.163a.476.476,0,0,1,.522-.522h.039a.475.475,0,0,1,.522.522v6.733a.475.475,0,0,1-.522.522h-.039a.476.476,0,0,1-.522-.522v-.184A2.817,2.817,0,0,1,299.569,252.638Zm0-5.827a2.788,2.788,0,0,0-2.786,2.785,2.836,2.836,0,0,0,2.786,2.81,2.618,2.618,0,0,0,2.023-.988l.2-.25v.807c0,.2.087.291.291.291h.039c.2,0,.291-.087.291-.291v-6.733c0-.2-.086-.292-.291-.292h-.039c-.2,0-.291.087-.291.292v2.776l-.2-.244A2.635,2.635,0,0,0,299.569,246.811Zm-.026,4.987a2.154,2.154,0,0,1-2.1-2.2,2.116,2.116,0,0,1,2.1-2.176,2.219,2.219,0,0,1,2.2,2.176A2.26,2.26,0,0,1,299.544,251.8Zm0-4.147a1.888,1.888,0,0,0-1.869,1.946,1.924,1.924,0,0,0,1.869,1.971,2.023,2.023,0,0,0,1.972-1.971A1.985,1.985,0,0,0,299.544,247.651Z" transform="translate(-296.553 -244.721)" fill="#00afe4"/>
        </g>
        <g id="Group_4" data-name="Group 4" transform="translate(22.736 0.071)">
          <path id="Path_10" data-name="Path 10" d="M308.192,245.616a.6.6,0,1,1,.611.611A.606.606,0,0,1,308.192,245.616Z" transform="translate(-308.077 -244.915)" fill="#00afe4"/>
          <path id="Path_11" data-name="Path 11" d="M308.726,246.265a.713.713,0,1,1,.713-.726A.719.719,0,0,1,308.726,246.265Zm0-1.2a.483.483,0,1,0,0,.965.483.483,0,1,0,0-.965Z" transform="translate(-308 -244.839)" fill="#00afe4"/>
        </g>
        <g id="Group_5" data-name="Group 5" transform="translate(22.913 1.949)">
          <rect id="Rectangle_4" data-name="Rectangle 4" width="0.891" height="5.598" rx="0.445" transform="translate(0.115 0.115)" fill="#00afe4"/>
          <path id="Path_12" data-name="Path 12" d="M308.894,253.795h-.076a.475.475,0,0,1-.522-.522v-4.784a.475.475,0,0,1,.522-.522h.076a.476.476,0,0,1,.523.522v4.784A.476.476,0,0,1,308.894,253.795Zm-.076-5.6c-.2,0-.292.087-.292.292v4.784c0,.2.088.291.292.291h.076c.2,0,.292-.087.292-.291v-4.784c0-.2-.087-.292-.292-.292Z" transform="translate(-308.295 -247.966)" fill="#00afe4"/>
        </g>
        <g id="Group_6" data-name="Group 6" transform="translate(24.75 1.86)">
          <path id="Path_13" data-name="Path 13" d="M311.546,250.912a2.916,2.916,0,0,1,2.9-2.9,2.738,2.738,0,0,1,2.112,1.005v-.509a.363.363,0,0,1,.407-.407H317a.363.363,0,0,1,.407.407v4.809a.363.363,0,0,1-.407.407h-.038a.363.363,0,0,1-.407-.407v-.509a2.722,2.722,0,0,1-2.112,1.031A2.955,2.955,0,0,1,311.546,250.912Zm4.962,0a2.108,2.108,0,0,0-2.087-2.061,2,2,0,0,0-1.985,2.061A2.043,2.043,0,0,0,314.421,253,2.148,2.148,0,0,0,316.508,250.912Z" transform="translate(-311.431 -247.896)" fill="#00afe4"/>
          <path id="Path_14" data-name="Path 14" d="M314.37,253.877a3.069,3.069,0,0,1-3.017-3.041,3.02,3.02,0,0,1,3.017-3.016,2.852,2.852,0,0,1,2,.826v-.214a.475.475,0,0,1,.522-.522h.038a.476.476,0,0,1,.522.522v4.809a.476.476,0,0,1-.522.522h-.038a.475.475,0,0,1-.522-.522v-.21A2.821,2.821,0,0,1,314.37,253.877Zm0-5.827a2.789,2.789,0,0,0-2.786,2.786,2.836,2.836,0,0,0,2.786,2.81,2.619,2.619,0,0,0,2.023-.988l.2-.251v.833c0,.2.087.292.291.292h.038c.2,0,.292-.088.292-.292v-4.809c0-.2-.087-.292-.292-.292h-.038c-.2,0-.291.087-.291.292v.827l-.2-.245A2.635,2.635,0,0,0,314.37,248.05Zm-.026,4.987a2.155,2.155,0,0,1-2.1-2.2,2.116,2.116,0,0,1,2.1-2.177,2.219,2.219,0,0,1,2.2,2.177A2.26,2.26,0,0,1,314.345,253.037Zm0-4.147a1.888,1.888,0,0,0-1.869,1.946,1.924,1.924,0,0,0,1.869,1.971,2.023,2.023,0,0,0,1.972-1.971A1.985,1.985,0,0,0,314.345,248.89Z" transform="translate(-311.354 -247.819)" fill="#00afe4"/>
        </g>
      </g>
    </g>
    <g id="Group_9" data-name="Group 9" transform="translate(151.655 195.399)">
      <path id="Path_15" data-name="Path 15" d="M169.777,199.828a6.049,6.049,0,0,0-1.457-2.352,6.362,6.362,0,0,0-2.422-1.464,10.336,10.336,0,0,0-3.394-.505h-8.781v0h-1.468a.6.6,0,0,0-.6.6v26.127a.856.856,0,0,0,.856.856h1.808a.856.856,0,0,0,.856-.856V198.561h6.194a6.194,6.194,0,0,1,4.106,1.136,4.123,4.123,0,0,1,1.318,3.3,4.182,4.182,0,0,1-1.318,3.324,5.993,5.993,0,0,1-4.106,1.117h-3.984a.676.676,0,0,0-.676.676v.819h0v.835a.676.676,0,0,0,.676.676H159.5v0h3a9.909,9.909,0,0,0,3.394-.479,6.37,6.37,0,0,0,2.422-1.464,6.053,6.053,0,0,0,1.457-2.346,9.533,9.533,0,0,0,.485-3.154A9.635,9.635,0,0,0,169.777,199.828Z" transform="translate(-151.655 -195.505)" fill="#fff"/>
    </g>
    <path id="Path_16" data-name="Path 16" d="M216.026,217.071a10.56,10.56,0,1,0-5.241,9.111.509.509,0,0,0,.248-.44v-3.084a.4.4,0,0,0-.673-.3,7.2,7.2,0,1,1-4.321-12.46,7.493,7.493,0,0,1,6.636,7.354V226.8a.684.684,0,0,0,.683.684h1.984a.684.684,0,0,0,.683-.684v-9.733Z" transform="translate(-17.287 -4.507)" fill="#fff"/>
  </g>
</svg>
